<?xml version="1.0" encoding="iso-8859-1"?>
<!-- Generator: Adobe Illustrator 21.0.0, SVG Export Plug-In . SVG Version: 6.00 Build 0)  -->
<svg version="1.1" id="Capa_1" xmlns="http://www.w3.org/2000/svg" xmlns:xlink="http://www.w3.org/1999/xlink" x="0px" y="0px"
	 viewBox="0 0 508.949 508.949" style="enable-background:new 0 0 508.949 508.949;" xml:space="preserve">
<g>
	<path style="fill:#BDC3C7;" d="M367.288,231.254c78.102,8.678,86.78-17.356,86.78-17.356V161.83c0-69.424-43.39-86.78-43.39-86.78
		c-32.24-11.116-61.799-28.852-86.78-52.068c0,0-8.678,52.068-69.424,52.068s-69.424-52.068-69.424-52.068
		c-24.98,23.216-54.54,40.951-86.78,52.068c0,0-43.39,17.356-43.39,86.78v52.068c0,0,8.678,26.034,86.78,17.356H367.288z"/>
	<path style="fill:#E6E7E8;" d="M323.898,22.983c24.98,23.216,54.54,40.951,86.78,52.068c0,0-52.068,130.169-52.068,242.983
		c-0.709,53.504,3.996,106.943,14.041,159.501c1.886,8.786-3.292,17.547-11.897,20.133c-16.644,5.016-48.935,11.281-106.279,11.281
		s-89.635-6.265-106.279-11.281c-8.614-2.586-13.794-11.359-11.898-20.15c10.044-52.552,14.748-105.985,14.041-159.484
		c0-112.814-52.068-242.983-52.068-242.983c32.24-11.116,61.799-28.852,86.78-52.068H323.898z"/>
	<path style="fill:#E64C3C;" d="M410.678,75.05c0,0-13.451,33.671-26.728,81.573c-51.807,42.782-131.992,122.88-239.512,269.971
		c4.044-36.044,6.015-72.291,5.901-108.561c-0.13-20.203-1.55-40.377-4.252-60.399v-0.087
		c80.879-109.95,192.217-188.833,216.428-205.321C377.622,61.691,393.787,69.35,410.678,75.05z"/>
	<path style="fill:#E6E7E8;" d="M332.576,170.508c-2.799,0.001-5.539-0.8-7.897-2.308l-11.568-7.42
		c-4.098-2.597-6.578-7.115-6.569-11.967v-24.81c0.072-7.923,6.543-14.294,14.466-14.241h23.135
		c7.923-0.053,14.395,6.317,14.466,14.241v24.81c-0.003,4.84-2.481,9.342-6.569,11.932l-11.568,7.42
		C338.119,169.685,335.378,170.498,332.576,170.508z M323.898,147.078l8.678,5.563l8.678-5.563v-19.959h-17.356V147.078z"/>
	<g>
		<path style="fill:#E64C3C;" d="M211.085,144.474c-1.343,0-2.668-0.312-3.87-0.911l-30.841-15.421l-30.833,15.464
			c-2.775,1.386-6.078,1.186-8.666-0.524c-2.588-1.71-4.066-4.671-3.879-7.767c0.187-3.096,2.012-5.857,4.787-7.243l34.712-17.356
			c2.442-1.22,5.316-1.22,7.758,0l34.712,17.356c3.555,1.821,5.408,5.834,4.489,9.721S215.079,144.439,211.085,144.474z"/>
		<path style="fill:#E64C3C;" d="M176.373,161.83c-1.346,0.001-2.674-0.311-3.879-0.911l-34.712-17.356
			c-2.775-1.386-4.599-4.147-4.787-7.243c-0.187-3.096,1.291-6.057,3.879-7.767c2.588-1.71,5.891-1.91,8.666-0.524l30.833,15.421
			l30.833-15.421c2.775-1.386,6.078-1.186,8.666,0.524c2.588,1.71,4.066,4.671,3.879,7.767c-0.187,3.096-2.012,5.857-4.787,7.243
			l-34.712,17.356C179.047,161.519,177.719,161.831,176.373,161.83z"/>
	</g>
	<path style="fill:#BDC3C7;" d="M323.898,22.983v0.087c-0.521,2.517-10.24,51.981-69.424,51.981s-68.903-49.464-69.424-51.981
		v-0.087l11.802-11.802c2.982-2.969,7.663-3.371,11.108-0.955c14.142,8.2,30.167,12.595,46.514,12.757
		c16.346-0.161,32.372-4.557,46.514-12.757c3.444-2.417,8.126-2.014,11.108,0.955l11.715,11.802H323.898z"/>
	<path style="fill:#C03A2B;" d="M254.474,83.728c-63.887,0-76.661-52.805-77.911-58.828c-0.12-0.603-0.184-1.216-0.191-1.831
		c-0.003-2.327,0.911-4.563,2.543-6.222l11.802-11.802c5.938-5.869,15.199-6.716,22.103-2.022
		c12.704,7.23,27.038,11.112,41.654,11.281c14.578-0.159,28.877-4.013,41.559-11.203c6.911-4.764,16.233-3.944,22.207,1.953
		l11.281,11.359c1.934,1.635,3.051,4.037,3.055,6.569v0.087c-0.002,0.583-0.063,1.165-0.182,1.736
		C331.136,30.923,318.362,83.728,254.474,83.728z M194.666,25.647c3.784,12.392,17.096,40.726,59.809,40.726
		s56.034-28.36,59.8-40.682l-8.34-8.392c-15.58,9.257-33.338,14.213-51.46,14.362c-18.122-0.148-35.882-5.088-51.478-14.319
		L194.666,25.647z"/>
</g>
<g>
</g>
<g>
</g>
<g>
</g>
<g>
</g>
<g>
</g>
<g>
</g>
<g>
</g>
<g>
</g>
<g>
</g>
<g>
</g>
<g>
</g>
<g>
</g>
<g>
</g>
<g>
</g>
<g>
</g>
</svg>
