<svg width="67" height="51" viewBox="0 0 67 51" fill="none" xmlns="http://www.w3.org/2000/svg">
<path d="M61.4221 20.3867H56.4571L50.3272 8.01472C49.8023 6.95542 48.7223 6.28516 47.5401 6.28516H8.73373H4.74122C3.29418 6.28516 2.12115 7.45818 2.12115 8.90522V38.6825H64.879V35.5716V23.8434C64.8788 21.9343 63.3312 20.3867 61.4221 20.3867Z" fill="#F8F6F6"/>
<path d="M61.4221 20.387H56.4571L50.3272 8.01508C49.8023 6.95577 48.7223 6.28564 47.54 6.28564H8.73374H4.74122C3.54033 6.28564 2.53062 7.09448 2.22101 8.19632H4.14817H42.9544C44.1366 8.19632 45.2166 8.86658 45.7415 9.92588L51.8716 22.2978H56.8365C58.7456 22.2978 60.2934 23.8455 60.2934 25.7547V37.4829V38.6831H64.8791V35.5722V23.8441C64.879 21.9347 63.3312 20.387 61.4221 20.387Z" fill="#0088BB"/>
<path d="M2.12122 26.9619H64.879V30.6018H2.12122V26.9619Z" fill="#57D1FF"/>
<path d="M22.3164 14.8739H18.7385V11.2961C18.7385 10.9983 18.4971 10.7568 18.1993 10.7568H15.5138C15.2159 10.7568 14.9745 10.9983 14.9745 11.2961V14.8739H11.3968C11.099 14.8739 10.8575 15.1154 10.8575 15.4132V18.0987C10.8575 18.3965 11.099 18.638 11.3968 18.638H14.9746V22.2158C14.9746 22.5136 15.2161 22.755 15.5139 22.755H18.1994C18.4972 22.755 18.7387 22.5136 18.7387 22.2158V18.638H22.3165C22.6143 18.638 22.8558 18.3965 22.8558 18.0987V15.4132C22.8555 15.1154 22.6142 14.8739 22.3164 14.8739Z" fill="#57D1FF"/>
<path d="M43.1388 6.28543H35.8591V2.69622C35.8591 1.20718 37.0663 0 38.5553 0H40.4427C41.9318 0 43.139 1.20718 43.139 2.69622V6.28543H43.1388Z" fill="#5FD6FF"/>
<path d="M66.2512 42.7404H0.748645C0.335261 42.7404 0 42.4053 0 41.9918V36.2526C0 35.8392 0.33513 35.5039 0.748645 35.5039H66.2514C66.6647 35.5039 67 35.839 67 36.2526V41.9918C66.9999 42.4052 66.6647 42.7404 66.2512 42.7404Z" fill="#0088BB"/>
<path d="M50.0268 50.8126C54.2542 50.8126 57.6811 47.3856 57.6811 43.1583C57.6811 38.9309 54.2542 35.5039 50.0268 35.5039C45.7994 35.5039 42.3724 38.9309 42.3724 43.1583C42.3724 47.3856 45.7994 50.8126 50.0268 50.8126Z" fill="#5A5A5A"/>
<path d="M12.9758 50.8126C17.2032 50.8126 20.6302 47.3856 20.6302 43.1583C20.6302 38.9309 17.2032 35.5039 12.9758 35.5039C8.74844 35.5039 5.32147 38.9309 5.32147 43.1583C5.32147 47.3856 8.74844 50.8126 12.9758 50.8126Z" fill="#5A5A5A"/>
<path d="M66.2511 35.5039H61.6655C62.0789 35.5039 62.4142 35.839 62.4142 36.2524V41.9918C62.4142 42.4052 62.079 42.7404 61.6655 42.7404H66.2511C66.6645 42.7404 66.9997 42.4053 66.9997 41.9918V36.2524C66.9997 35.839 66.6646 35.5039 66.2511 35.5039Z" fill="#00B3FF"/>
<path d="M50.0269 35.5039C49.2281 35.5039 48.458 35.6267 47.7341 35.8537C50.8412 36.8281 53.0956 39.7297 53.0956 43.1583C53.0956 46.5869 50.8412 49.4886 47.7341 50.4628C48.458 50.6898 49.2281 50.8126 50.0269 50.8126C54.2543 50.8126 57.6812 47.3855 57.6812 43.1583C57.6812 38.931 54.2541 35.5039 50.0269 35.5039Z" fill="#444444"/>
<path d="M12.9759 35.5039C12.1771 35.5039 11.407 35.6267 10.6831 35.8537C13.7902 36.8281 16.0447 39.7297 16.0447 43.1583C16.0447 46.5869 13.7902 49.4886 10.6831 50.4628C11.407 50.6898 12.1771 50.8126 12.9759 50.8126C17.2033 50.8126 20.6302 47.3855 20.6302 43.1583C20.6302 38.931 17.2033 35.5039 12.9759 35.5039Z" fill="#444444"/>
<path d="M53.187 43.6678C53.4711 41.915 52.2806 40.2638 50.5278 39.9796C48.775 39.6955 47.1238 40.8861 46.8397 42.6388C46.5555 44.3916 47.7461 46.0428 49.4989 46.327C51.2516 46.6111 52.9029 45.4206 53.187 43.6678Z" fill="#BFBFBF"/>
<path d="M16.1427 43.6649C16.4268 41.9121 15.2363 40.2608 13.4835 39.9767C11.7307 39.6926 10.0795 40.8831 9.79536 42.6359C9.51122 44.3887 10.7018 46.0399 12.4546 46.324C14.2073 46.6082 15.8586 45.4176 16.1427 43.6649Z" fill="#BFBFBF"/>
<path d="M64.8788 31.6635H58.4902C58.0434 31.6635 57.6813 31.3014 57.6813 30.8547V26.6755C57.6813 26.2288 58.0434 25.8667 58.4902 25.8667H64.879V31.6635H64.8788Z" fill="#00B3FF"/>
<path d="M60.2932 25.8667H64.8789V31.6635H60.2932V25.8667Z" fill="#57D1FF"/>
<path d="M46.1611 10.4277H34.3088C33.8621 10.4277 33.5 10.7898 33.5 11.2366V19.5781C33.5 20.0248 33.8621 20.3869 34.3088 20.3869H50.2941C50.8941 20.3869 51.2852 19.7565 51.0189 19.219L46.8858 10.8775C46.7494 10.602 46.4685 10.4277 46.1611 10.4277Z" fill="#57D1FF"/>
<path d="M51.0187 19.219L46.8858 10.8775C46.7493 10.602 46.4685 10.4277 46.1611 10.4277H42.3397C42.6471 10.4277 42.9279 10.602 43.0646 10.8775L47.1975 19.219C47.4639 19.7567 47.0728 20.3869 46.4728 20.3869H50.2941C50.894 20.3869 51.2851 19.7567 51.0187 19.219Z" fill="#00B3FF"/>
<path d="M40.4426 0H38.5552C38.2852 0 38.0251 0.0408285 37.7792 0.114633C38.8898 0.448062 39.6994 1.47701 39.6994 2.69622V6.28543H43.1386V2.69609C43.1388 1.20705 41.9316 0 40.4426 0Z" fill="#00A0DC"/>
</svg>
