<svg width="23" height="29" viewBox="0 0 23 29" fill="none" xmlns="http://www.w3.org/2000/svg">
<path d="M11.5 0C3.83813 6.5975 0 12.296 0 17.11C0 24.331 5.4625 29 11.5 29C17.5375 29 23 24.331 23 17.11C23 12.296 19.1619 6.5975 11.5 0ZM11.5 26.1C6.68438 26.1 2.875 22.3735 2.875 17.11C2.875 13.717 5.67812 9.222 11.5 3.857C17.3219 9.222 20.125 13.7025 20.125 17.11C20.125 22.3735 16.3156 26.1 11.5 26.1ZM5.50562 17.4C6.0375 17.4 6.46875 17.777 6.56937 18.299C7.15875 21.518 9.84688 22.62 11.8019 22.4605C12.42 22.4315 12.9375 22.9245 12.9375 23.548C12.9375 24.128 12.4775 24.6065 11.9025 24.6355C8.84062 24.824 5.26125 23.055 4.44188 18.6615C4.41689 18.506 4.42569 18.347 4.46764 18.1953C4.5096 18.0436 4.58372 17.9029 4.68488 17.7829C4.78604 17.6629 4.91182 17.5666 5.05353 17.5005C5.19524 17.4343 5.34949 17.4001 5.50562 17.4Z" fill="#00789E"/>
</svg>
