<svg width="65" height="55" viewBox="0 0 65 55" fill="none" xmlns="http://www.w3.org/2000/svg">
<path d="M1.70193 20.0024H19.9812V52.779H1.70193V20.0024Z" fill="#00B3FF"/>
<path d="M0 18.1118H19.9811V21.8937H0V18.1118Z" fill="#0088BB"/>
<path d="M18.0901 10.9473H62.8427V52.7789H18.0901V10.9473Z" fill="#F0F7FF"/>
<path d="M40.4663 10.9473H62.8426V52.7789H40.4663V10.9473Z" fill="#D7E9FC"/>
<path d="M16.3882 9.05615H64.5445V12.8381H16.3882V9.05615Z" fill="#0088BB"/>
<path d="M40.4663 9.05615H64.5444V12.8381H40.4663V9.05615Z" fill="#0088BB"/>
<path d="M9.89627 26.3057H13.6782V30.0876H9.89627V26.3057Z" fill="#F0F7FF"/>
<path d="M9.89612 34.5H13.678V38.2819H9.89612V34.5Z" fill="#F0F7FF"/>
<path d="M9.89612 42.6938H13.678V46.4758H9.89612V42.6938Z" fill="#F0F7FF"/>
<path d="M42.6725 34.5H46.4545V38.2819H42.6725V34.5Z" fill="#00A0DC"/>
<path d="M50.8668 34.5H54.6487V38.2819H50.8668V34.5Z" fill="#00A0DC"/>
<path d="M34.4783 34.5H38.2602V38.2819H34.4783V34.5Z" fill="#00B3FF"/>
<path d="M26.2844 34.5H30.0663V38.2819H26.2844V34.5Z" fill="#00B3FF"/>
<path d="M50.8668 26.3057H54.6487V30.0876H50.8668V26.3057Z" fill="#00A0DC"/>
<path d="M42.6725 26.3057H46.4545V30.0876H42.6725V26.3057Z" fill="#00A0DC"/>
<path d="M28.6543 0V21.8935H52.2786V0H28.6543Z" fill="#57D1FF"/>
<path d="M40.4663 0H52.2785V21.8935H40.4663V0Z" fill="#00A0DC"/>
<path d="M46.0223 9.05627V12.8382H42.3576V16.5028H38.5757V12.8382H34.9111V9.05627H38.5757V5.3916H42.3576V9.05627H46.0223Z" fill="#F0F7FF"/>
<path d="M46.0219 9.05627V12.8382H42.3573V16.5028H40.4663V5.3916H42.3573V9.05627H46.0219Z" fill="#D7E9FC"/>
<path d="M34.4783 26.3057H38.2602V30.0876H34.4783V26.3057Z" fill="#00B3FF"/>
<path d="M26.2844 26.3057H30.0663V30.0876H26.2844V26.3057Z" fill="#00B3FF"/>
<path d="M32.4301 42.6938H48.5032V52.7789H32.4301V42.6938Z" fill="#5FD6FF"/>
<path d="M40.4663 42.6938H48.5029V52.7789H40.4663V42.6938Z" fill="#00B3FF"/>
<path d="M0 50.8882H64.5445V54.6701H0V50.8882Z" fill="#00A0DC"/>
<path d="M32.2723 50.8882H64.5446V54.6701H32.2723V50.8882Z" fill="#0088BB"/>
</svg>
