<svg width="62" height="62" viewBox="0 0 62 62" fill="none" xmlns="http://www.w3.org/2000/svg">
<path d="M18.2852 60.1836H3.63281V12.8359C3.63281 11.8328 4.44608 11.0195 5.44922 11.0195H18.2852V60.1836Z" fill="#D9E5FF"/>
<path d="M58.3672 60.1836H43.7148V11.0195H56.5508C57.5539 11.0195 58.3672 11.8328 58.3672 12.8359V60.1836Z" fill="#BFD6FF"/>
<path d="M18.2852 41.8984H31V60.1836H18.2852V41.8984Z" fill="#57D1FF"/>
<path d="M31 41.8984H40.082V60.1836H31V41.8984Z" fill="#0281B0"/>
<path d="M31 41.8984H43.7148V60.1836H31V41.8984Z" fill="#00AEEF"/>
<path d="M21.918 60.1836H14.6523V43.7148L18.4572 40.082H21.918V60.1836Z" fill="#00AEEF"/>
<path d="M47.3477 60.1836H40.082V40.082H43.8391L47.3477 43.7148V60.1836Z" fill="#00A0DC"/>
<path d="M7.26562 36.4492H18.2852V43.7148H7.26562V36.4492Z" fill="#57D1FF"/>
<path d="M7.26562 25.5508H18.2852V32.8164H7.26562V25.5508Z" fill="#57D1FF"/>
<path d="M7.26562 14.6523H18.2852V21.918H7.26562V14.6523Z" fill="#57D1FF"/>
<path d="M43.7148 14.6523H54.7344V21.918H43.7148V14.6523Z" fill="#00A0DC"/>
<path d="M43.7148 25.5508H54.7344V32.8164H43.7148V25.5508Z" fill="#00A0DC"/>
<path d="M43.7148 36.4492H54.7344V43.7148H43.7148V36.4492Z" fill="#00A0DC"/>
<path d="M47.3477 1.81641V43.7148H14.6523V1.81641C14.6523 0.799098 15.4514 0 16.4688 0H45.5312C46.5486 0 47.3477 0.799098 47.3477 1.81641Z" fill="#ECF2FF"/>
<path d="M47.3477 43.7148H31V0H45.5312C46.5486 0 47.3477 0.799098 47.3477 1.81641V43.7148Z" fill="#D9E5FF"/>
<path d="M27.3672 25.5508H23.7344C22.7304 25.5508 21.918 24.7384 21.918 23.7344C21.918 22.7304 22.7304 21.918 23.7344 21.918H27.3672C28.3712 21.918 29.1836 22.7304 29.1836 23.7344C29.1836 24.7384 28.3712 25.5508 27.3672 25.5508Z" fill="#57D1FF"/>
<path d="M38.2656 25.5508H34.6328C33.6288 25.5508 32.8164 24.7384 32.8164 23.7344C32.8164 22.7304 33.6288 21.918 34.6328 21.918H38.2656C39.2696 21.918 40.082 22.7304 40.082 23.7344C40.082 24.7384 39.2696 25.5508 38.2656 25.5508Z" fill="#00A0DC"/>
<path d="M27.3672 32.8164H23.7344C22.7304 32.8164 21.918 32.004 21.918 31C21.918 29.996 22.7304 29.1836 23.7344 29.1836H27.3672C28.3712 29.1836 29.1836 29.996 29.1836 31C29.1836 32.004 28.3712 32.8164 27.3672 32.8164Z" fill="#57D1FF"/>
<path d="M38.2656 32.8164H34.6328C33.6288 32.8164 32.8164 32.004 32.8164 31C32.8164 29.996 33.6288 29.1836 34.6328 29.1836H38.2656C39.2696 29.1836 40.082 29.996 40.082 31C40.082 32.004 39.2696 32.8164 38.2656 32.8164Z" fill="#00A0DC"/>
<path d="M27.3672 40.082H23.7344C22.7304 40.082 21.918 39.2696 21.918 38.2656C21.918 37.2616 22.7304 36.4492 23.7344 36.4492H27.3672C28.3712 36.4492 29.1836 37.2616 29.1836 38.2656C29.1836 39.2696 28.3712 40.082 27.3672 40.082Z" fill="#57D1FF"/>
<path d="M38.2656 40.082H34.6328C33.6288 40.082 32.8164 39.2696 32.8164 38.2656C32.8164 37.2616 33.6288 36.4492 34.6328 36.4492H38.2656C39.2696 36.4492 40.082 37.2616 40.082 38.2656C40.082 39.2696 39.2696 40.082 38.2656 40.082Z" fill="#00A0DC"/>
<path d="M36.4492 12.8359C36.4492 13.853 35.6501 14.6523 34.6328 14.6523H32.8164V16.4688C32.8164 17.4858 32.0173 18.2852 31 18.2852C29.9827 18.2852 29.1836 17.4858 29.1836 16.4688V14.6523H27.3672C26.3499 14.6523 25.5508 13.853 25.5508 12.8359C25.5508 11.8186 26.3499 11.0195 27.3672 11.0195H29.1836V9.20312C29.1836 8.18582 29.9827 7.38672 31 7.38672C32.0173 7.38672 32.8164 8.18582 32.8164 9.20312V11.0195H34.6328C35.6501 11.0195 36.4492 11.8186 36.4492 12.8359Z" fill="#57D1FF"/>
<path d="M31 18.2852V7.38672C32.0173 7.38672 32.8164 8.18582 32.8164 9.20312V11.0195H34.6328C35.6501 11.0195 36.4492 11.8186 36.4492 12.8359C36.4492 13.853 35.6501 14.6523 34.6328 14.6523H32.8164V16.4688C32.8164 17.4858 32.0173 18.2852 31 18.2852Z" fill="#00A0DC"/>
<path d="M62 60.1836C62 61.2007 61.2009 62 60.1836 62H1.81641C0.799098 62 0 61.2007 0 60.1836C0 59.1663 0.799098 58.3672 1.81641 58.3672H60.1836C61.2009 58.3672 62 59.1663 62 60.1836Z" fill="#00A0DC"/>
<path d="M62 60.1836C62 61.2007 61.2009 62 60.1836 62H31V58.3672H60.1836C61.2009 58.3672 62 59.1663 62 60.1836Z" fill="#0088BB"/>
</svg>
