<svg width="37" height="54" viewBox="0 0 37 54" fill="none" xmlns="http://www.w3.org/2000/svg">
<path d="M12.4123 46.8527H14.6904V50.2859C14.6904 52.0921 16.1604 53.5564 17.9737 53.5564C19.7871 53.5564 21.257 52.0921 21.257 50.2859V46.8527H23.5707C25.144 46.8527 26.4195 45.5822 26.4195 44.015C26.4195 42.4479 25.144 41.1774 23.5707 41.1774H21.257V30.8428H14.726L14.6904 41.1774H12.4123C10.839 41.1774 9.5636 42.4479 9.5636 44.015C9.5636 45.5822 10.839 46.8527 12.4123 46.8527Z" fill="#00B3FF"/>
<path d="M21.2793 39.0268V31.2012H14.7301L14.7043 39.0268C16.3735 39.4918 19.9146 39.3662 21.2793 39.0268Z" fill="#0088BB"/>
<path d="M18.0513 0C8.08186 0 0 8.08186 0 18.0513C0 28.0208 8.08186 36.1027 18.0513 36.1027C28.0208 36.1027 36.1027 28.0208 36.1027 18.0513C36.1027 8.08186 28.0208 0 18.0513 0ZM18.0513 29.2148C11.8859 29.2148 6.88786 24.2168 6.88786 18.0513C6.88786 11.8859 11.8859 6.88786 18.0513 6.88786C24.2168 6.88786 29.2148 11.8859 29.2148 18.0513C29.2148 24.2168 24.2168 29.2148 18.0513 29.2148Z" fill="#00B3FF"/>
<path d="M7.18371 20.6065C6.98979 19.7828 6.88618 18.9243 6.88618 18.0415C6.88618 11.8795 11.883 6.88418 18.0469 6.88418C18.9254 6.88418 19.7799 6.98661 20.5998 7.17849C23.0801 5.61952 25.6638 4.23367 28.4518 3.30049C25.5111 1.22214 21.9221 0 18.0469 0C8.07988 0 0 8.07742 0 18.0414C0 22.4617 1.59108 26.51 4.23077 29.6472C4.28242 29.5422 5.03161 24.5743 7.18371 20.6065Z" fill="#0088BB"/>
</svg>
