<svg width="27" height="21" viewBox="0 0 27 21" fill="none" xmlns="http://www.w3.org/2000/svg">
<path d="M25.3833 2.43005C24.2774 1.23002 22.7704 0.532506 21.1399 0.465955C19.5095 0.39893 17.9506 0.971731 16.7506 2.07762C15.5506 3.18346 14.8531 4.69045 14.7865 6.32095C14.7232 7.86997 15.2458 9.30956 16.156 10.426L14.9403 11.5463L12.5987 12.1952C12.5937 10.5842 11.8503 9.08318 10.5973 8.10274C10.8619 7.48016 11.0113 6.80969 11.0344 6.12973C11.0843 4.65655 10.5576 3.25207 9.5513 2.17502C8.54497 1.09798 7.17947 0.477345 5.70628 0.427353C2.66778 0.32315 0.110584 2.71397 0.00395473 5.75448C-0.0674476 7.7896 0.863156 10.6729 2.43253 13.2793C3.76497 15.4921 6.14941 18.5319 9.94243 20.4464L10.1993 20.576L10.4793 20.5103C12.4751 20.0426 16.1927 17.8839 18.1289 16.0683C19.3201 14.9514 20.3945 13.7243 21.2448 12.6694C22.6534 12.5901 23.9798 12.0312 25.0308 11.0627C26.2308 9.95683 26.9283 8.44984 26.9949 6.81934C27.0615 5.1889 26.4891 3.63007 25.3833 2.43005ZM17.0468 14.9143C15.3882 16.4695 12.2063 18.3612 10.3911 18.8974C4.33461 15.6866 1.47962 8.81565 1.58498 5.80995V5.81001C1.66108 3.6403 3.48648 1.9354 5.65265 2.00849C6.70349 2.04414 7.67755 2.48689 8.39536 3.25518C9.11319 4.02342 9.48892 5.02526 9.45327 6.0761C9.4307 6.74108 9.23896 7.39293 8.89872 7.96115L8.4847 8.65265L9.18385 9.05365C10.3589 9.72759 11.0605 10.9858 11.0146 12.3374C11.0084 12.5187 10.9432 12.9145 10.9036 13.1214L10.6632 14.3733L15.7311 12.9689L17.3077 11.516C17.9114 11.9547 18.5992 12.2861 19.344 12.4808C18.6625 13.2817 17.8811 14.132 17.0468 14.9143ZM25.4142 6.7549C25.3649 7.9632 24.848 9.07991 23.9587 9.8994C23.0694 10.7189 21.9142 11.143 20.7059 11.0937C18.2117 10.9918 16.2653 8.87978 16.3671 6.3855C16.4165 5.17719 16.9334 4.06049 17.8226 3.241C18.6654 2.46432 19.7469 2.04282 20.8861 2.04282C20.949 2.04282 21.0122 2.04408 21.0753 2.04667C22.2836 2.09603 23.4004 2.61293 24.2198 3.50219C25.0394 4.3914 25.4635 5.5466 25.4142 6.7549Z" fill="#00789E"/>
</svg>
