<svg width="49" height="55" viewBox="0 0 49 55" fill="none" xmlns="http://www.w3.org/2000/svg">
<path fill-rule="evenodd" clip-rule="evenodd" d="M45.1833 48.8861C46.689 48.8861 47.9218 47.6565 47.9218 46.1507V15.0386H0.975494V40.7332V46.1507C0.975494 47.6565 2.20827 48.8861 3.714 48.8861H45.1833Z" fill="#EFF6FF"/>
<path fill-rule="evenodd" clip-rule="evenodd" d="M0.975498 16.1428H47.9217H47.9311C48.4612 16.1428 48.8973 15.7068 48.8973 15.1767L48.9004 12.5636L24.4486 10.5371L0 12.5635V15.1766C0 15.7067 0.436026 16.1427 0.969268 16.1427H0.975498V16.1428Z" fill="#9FD4FE"/>
<path fill-rule="evenodd" clip-rule="evenodd" d="M0 12.5634H48.8974V12.5321V5.89749C48.8974 5.36425 48.4613 4.92822 47.9312 4.92822C31.72 4.92822 17.1775 4.92822 0.969375 4.92822C0.436133 4.92822 0.000107363 5.36425 0.000107363 5.89749V12.5634H0Z" fill="#57D1FF"/>
<path fill-rule="evenodd" clip-rule="evenodd" d="M9.47329 4.92809V2.22095C9.47329 1.00063 8.47265 0 7.24933 0C6.02601 0 5.02527 1.00063 5.02527 2.22095V4.92809V6.96395C5.02527 8.18737 6.0259 9.18489 7.24933 9.18489C8.47276 9.18489 9.47339 8.18737 9.47339 6.96395V4.92809H9.47329Z" fill="#00B3FF"/>
<path fill-rule="evenodd" clip-rule="evenodd" d="M16.4933 2.22095V4.92809V6.96395C16.4933 8.18737 17.494 9.18489 18.7142 9.18489C19.9376 9.18489 20.9382 8.18737 20.9382 6.96395V4.92809V2.22095C20.9382 1.00063 19.9376 0 18.7142 0C17.494 0 16.4933 1.00063 16.4933 2.22095Z" fill="#00B3FF"/>
<path fill-rule="evenodd" clip-rule="evenodd" d="M27.9588 2.22095V4.92809V6.96395C27.9588 8.18737 28.9594 9.18489 30.1829 9.18489C31.4062 9.18489 32.4037 8.18737 32.4037 6.96395V4.92809V2.22095C32.4037 1.00063 31.4062 0 30.1828 0C28.9594 0 27.9588 1.00063 27.9588 2.22095Z" fill="#00B3FF"/>
<path fill-rule="evenodd" clip-rule="evenodd" d="M39.4241 2.22095V4.92809V6.96395C39.4241 8.18737 40.4247 9.18489 41.6481 9.18489C42.8716 9.18489 43.8722 8.18737 43.8722 6.96405V4.92809V2.22095C43.8722 1.00063 42.8716 0 41.6481 0C40.4247 0 39.4241 1.00063 39.4241 2.22095Z" fill="#00B3FF"/>
<path fill-rule="evenodd" clip-rule="evenodd" d="M43.8721 6.96419C43.8721 8.18762 42.8715 9.18514 41.6481 9.18514C40.4246 9.18514 39.424 8.18762 39.424 6.96419V4.92822H34.8035C35.8763 6.93271 36.4692 9.14432 36.4692 11.4687C36.4692 11.8358 36.4566 12.1996 36.4252 12.5636H48.8973V12.5322V5.8976C48.8973 5.36436 48.4613 4.92833 47.9312 4.92833H43.8721V6.96419Z" fill="#00B3FF"/>
<path fill-rule="evenodd" clip-rule="evenodd" d="M48.8972 12.5635H36.4251C36.3592 13.4073 36.2118 14.2323 35.9922 15.0385C35.8886 15.4118 35.7726 15.7819 35.6377 16.1427H47.9216H47.9311C48.4612 16.1427 48.8972 15.7066 48.8972 15.1765V12.5635Z" fill="#85BEEF"/>
<path fill-rule="evenodd" clip-rule="evenodd" d="M21.2929 24.8571C22.1431 26.3933 23.1184 26.6138 24.2289 26.6138C25.3394 26.6138 27.0509 26.338 27.6074 24.8571V23.3984C27.6074 21.6605 26.1864 20.2363 24.4486 20.2363C22.7107 20.2363 21.2866 21.6605 21.2897 23.3984L21.2929 24.8571Z" fill="#00B3FF"/>
<path fill-rule="evenodd" clip-rule="evenodd" d="M47.9216 16.1426H35.6376H30.2202C31.1455 19.8536 31.7008 23.8939 31.8044 28.1319C32.8207 29.5875 33.4199 31.3504 33.4199 33.2483V37.3389C33.4199 40.366 34.9162 43.2771 38.2098 46.3419V48.8859H45.183C46.6887 48.8859 47.9215 47.6563 47.9215 46.1506V16.1426H47.9216Z" fill="#D9EEFF"/>
<path fill-rule="evenodd" clip-rule="evenodd" d="M33.42 37.3389V33.2483C33.42 29.4275 30.9951 26.1431 27.6074 24.857C26.6255 24.4837 25.5591 24.2798 24.4485 24.2798C23.3381 24.2798 22.2747 24.4837 21.2929 24.857C17.9051 26.14 15.4803 29.4243 15.4803 33.2483V37.3389C15.4803 40.366 13.9809 43.2771 10.6871 46.3419L24.8908 48.0892L38.2099 46.3419C34.9163 43.2771 33.42 40.366 33.42 37.3389Z" fill="#57D1FF"/>
<path fill-rule="evenodd" clip-rule="evenodd" d="M27.6797 50.7244L24.4487 48.8862L21.2178 50.7244V51.769C21.2178 53.5445 22.6733 55 24.4487 55C26.2242 55 27.6797 53.5445 27.6797 51.769V50.7244Z" fill="#00B3FF"/>
<path fill-rule="evenodd" clip-rule="evenodd" d="M29.1978 33.1887V37.2761C29.1978 40.3033 30.6941 43.2144 33.9878 46.2791V46.3419H38.21C34.9163 43.2771 33.42 40.366 33.42 37.3389V33.2483C33.42 29.4275 30.9952 26.1431 27.6074 24.857C26.6256 24.4837 25.5591 24.2798 24.4486 24.2798C23.7679 24.2798 23.1029 24.3551 22.4661 24.5025C22.7798 24.584 23.0872 24.6813 23.3883 24.7942C26.7731 26.0804 29.1978 29.3648 29.1978 33.1887Z" fill="#0088BB"/>
<path fill-rule="evenodd" clip-rule="evenodd" d="M27.6796 51.7692V50.7246H25.2799V51.7692C25.2799 53.1212 24.4361 54.2881 23.2473 54.7681C23.6206 54.9155 24.0252 55.0002 24.4487 55.0002C26.2241 55.0002 27.6796 53.5446 27.6796 51.7692Z" fill="#0088BB"/>
<path fill-rule="evenodd" clip-rule="evenodd" d="M22.7767 21.1776C24.5113 21.1776 25.9355 22.5986 25.9355 24.3364V24.4023C26.5127 24.4995 27.0711 24.6532 27.6074 24.8571V23.3984C27.6074 21.6605 26.1865 20.2363 24.4486 20.2363C23.5421 20.2363 22.7202 20.6253 22.143 21.2433C22.347 21.1996 22.5602 21.1776 22.7767 21.1776Z" fill="#0088BB"/>
<path fill-rule="evenodd" clip-rule="evenodd" d="M9.47326 2.22095C9.47326 1.00063 8.47262 0 7.2493 0C6.84776 0 6.47135 0.10667 6.142 0.294873C6.81016 0.680732 7.25876 1.40218 7.25876 2.22095V4.92809V6.96395C7.25876 7.78272 6.81016 8.50416 6.142 8.89002C6.47135 9.07822 6.84776 9.18489 7.2493 9.18489C8.47273 9.18489 9.47337 8.18737 9.47337 6.96395V4.92809V2.22095H9.47326Z" fill="#0088BB"/>
<path fill-rule="evenodd" clip-rule="evenodd" d="M17.6103 0.294873C18.2753 0.680732 18.727 1.40218 18.727 2.22095V4.92809V6.96395C18.727 7.78272 18.2753 8.50416 17.6103 8.89002C17.9365 9.07822 18.3129 9.18489 18.7145 9.18489C19.9379 9.18489 20.9385 8.18737 20.9385 6.96395V4.92809V2.22095C20.9384 1.00063 19.9378 0 18.7144 0C18.3129 0 17.9365 0.10667 17.6103 0.294873Z" fill="#0088BB"/>
<path fill-rule="evenodd" clip-rule="evenodd" d="M29.0753 0.294873C29.7403 0.680732 30.192 1.40218 30.192 2.22095V4.92809V6.96395C30.192 7.78272 29.7403 8.50416 29.0753 8.89002C29.4015 9.07822 29.7779 9.18489 30.1826 9.18489C31.4059 9.18489 32.4034 8.18737 32.4034 6.96395V4.92809V2.22095C32.4035 1.00063 31.406 0 30.1826 0C29.7779 0 29.4015 0.10667 29.0753 0.294873Z" fill="#0088BB"/>
<path fill-rule="evenodd" clip-rule="evenodd" d="M40.5408 0.294873C41.2059 0.680732 41.6576 1.40218 41.6576 2.22095V4.92809V6.96395C41.6576 7.78272 41.2059 8.50416 40.5408 8.89002C40.867 9.07822 41.2466 9.18489 41.6481 9.18489C42.8714 9.18489 43.8722 8.18737 43.8722 6.96395V4.92809V2.22095C43.8722 1.00063 42.8715 0 41.6481 0C41.2466 0 40.867 0.10667 40.5408 0.294873Z" fill="#0088BB"/>
<path fill-rule="evenodd" clip-rule="evenodd" d="M10.6871 46.3418V48.8859V49.5949C10.6871 50.216 11.1953 50.7242 11.8164 50.7242H37.0806C37.7017 50.7242 38.2099 50.216 38.2099 49.5949V48.8859V46.3418H10.6871Z" fill="#BBEDFF"/>
<path fill-rule="evenodd" clip-rule="evenodd" d="M33.9878 46.8971V48.8859V49.5949C33.9878 50.216 33.4796 50.7242 32.8586 50.7242H37.0808C37.7019 50.7242 38.2101 50.216 38.2101 49.5949V48.8859V46.3418H33.9879V46.8971H33.9878Z" fill="#00B3FF"/>
<path d="M41.0708 33.4294C40.9828 33.4294 40.8933 33.4153 40.8053 33.3856C40.371 33.239 40.1378 32.7681 40.2843 32.3338C41.8039 27.8321 39.3794 22.934 34.8797 21.4151C34.4454 21.2684 34.2122 20.7975 34.3587 20.3632C34.5053 19.9289 34.9767 19.6955 35.4106 19.8422C40.7776 21.6539 43.6694 27.4957 41.8572 32.8645C41.7403 33.2109 41.4172 33.4294 41.0708 33.4294ZM37.7771 32.3189C37.6889 32.3189 37.5993 32.3048 37.5112 32.2751C37.077 32.1283 36.8439 31.6572 36.9906 31.223C37.4311 29.9203 37.3383 28.5258 36.7296 27.2962C36.121 26.0667 35.0686 25.1479 33.7664 24.709C33.3321 24.5625 33.0986 24.0918 33.2449 23.6573C33.3915 23.2229 33.8623 22.9898 34.2966 23.1359C36.0193 23.7165 37.4118 24.9325 38.2173 26.5597C39.0226 28.1868 39.1455 30.0317 38.5632 31.7544C38.4463 32.1007 38.1233 32.3189 37.7771 32.3189Z" fill="#0088BB"/>
<path d="M7.82635 33.4293C7.48003 33.4293 7.15701 33.2109 7.04013 32.8645C6.16196 30.2632 6.34877 27.4762 7.56618 25.0174C8.78391 22.558 10.8876 20.72 13.4898 19.8422C13.9244 19.6954 14.3952 19.9291 14.5416 20.3633C14.6881 20.7976 14.4548 21.2685 14.0205 21.4151C11.8386 22.1511 10.0747 23.6921 9.05386 25.754C8.03314 27.8155 7.87663 30.1523 8.613 32.3337C8.75963 32.7679 8.52642 33.239 8.09212 33.3856C8.00392 33.4153 7.91433 33.4293 7.82635 33.4293ZM11.12 32.3189C10.7738 32.3189 10.4509 32.1006 10.3339 31.7544C9.75157 30.0317 9.87446 28.1868 10.6798 26.5597C11.4853 24.9324 12.8777 23.7165 14.6005 23.1358C15.0347 22.9893 15.5057 23.2229 15.6521 23.6573C15.7986 24.0917 15.565 24.5625 15.1307 24.7089C13.8284 25.1479 12.7761 26.0666 12.1675 27.2962C11.5588 28.5258 11.4661 29.9205 11.9063 31.223C12.0532 31.6572 11.8201 32.1283 11.3858 32.2751C11.2978 32.3047 11.2081 32.3189 11.12 32.3189Z" fill="#0088BB"/>
</svg>
