<svg width="20" height="25" viewBox="0 0 20 25" fill="none" xmlns="http://www.w3.org/2000/svg">
<path d="M8.49743 24.7197H0.772494C0.345836 24.7197 0 24.3739 0 23.9472V0.772415C0 0.345758 0.345836 -7.82013e-05 0.772494 -7.82013e-05H8.49743C8.92409 -7.82013e-05 9.26993 0.345758 9.26993 0.772415V23.9472C9.26993 24.3739 8.92404 24.7197 8.49743 24.7197ZM7.72494 1.54491H1.54499V3.86239H5.40746V5.40738H1.54499V7.72486H3.86247V9.26985H1.54499V11.5873H5.40746V13.1323H1.54499V15.4498H3.86247V16.9948H1.54499V19.3123H5.40746V20.8573H1.54499V23.1747H7.72494V1.54491Z" fill="#00AEEF"/>
<path d="M18.7725 5.17598L16.2232 2.63447V22.0859L18.7647 19.5444L19.854 20.6336L15.9915 24.4961C15.6902 24.7956 15.2036 24.7956 14.9023 24.4961L11.0398 20.6336L12.129 19.5444L14.6782 22.0859V2.63447L12.1367 5.17598L11.0475 4.08676L14.91 0.224293C15.2113 -0.0752411 15.6979 -0.0752411 15.9992 0.224293L19.8617 4.08676L18.7725 5.17598Z" fill="#00AEEF"/>
</svg>
