<svg width="27" height="32" viewBox="0 0 27 32" fill="none" xmlns="http://www.w3.org/2000/svg">
<path d="M11.4882 31.9989H1.48872C0.936434 31.9989 0.48877 31.5512 0.48877 30.999V1.00047C0.48877 0.448189 0.936434 0.000524521 1.48872 0.000524521H11.4882C12.0405 0.000524521 12.4882 0.448189 12.4882 1.00047V30.999C12.4882 31.5512 12.0404 31.9989 11.4882 31.9989ZM10.4883 2.00042H2.48867V5.00027H7.48841V7.00017H2.48867V10H5.48852V11.9999H2.48867V14.9998H7.48841V16.9997H2.48867V19.9995H5.48852V21.9994H2.48867V24.9993H7.48841V26.9992H2.48867V29.999H10.4883V2.00042Z" fill="#00789E"/>
<path d="M24.7868 6.70047L21.487 3.41064V28.5894L24.7768 25.2995L26.1868 26.7095L21.187 31.7092C20.797 32.0969 20.1671 32.0969 19.7771 31.7092L14.7773 26.7095L16.1873 25.2995L19.4871 28.5894V3.41064L16.1973 6.70047L14.7873 5.29054L19.7871 0.290798C20.1771 -0.0969315 20.807 -0.0969315 21.197 0.290798L26.1968 5.29054L24.7868 6.70047Z" fill="#00789E"/>
</svg>
