<svg width="26" height="29" viewBox="0 0 26 29" fill="none" xmlns="http://www.w3.org/2000/svg">
<path d="M25.36 21.8321C25.3536 21.8238 25.3466 21.8159 25.339 21.8085C24.9249 21.1047 24.3382 20.518 23.6344 20.1039C23.627 20.0964 23.6191 20.0893 23.6108 20.0829C23.6031 20.0787 23.5948 20.0784 23.5869 20.075C22.1225 19.2322 20.3204 19.2322 18.8561 20.075C18.8481 20.0784 18.8399 20.0787 18.8322 20.0829C18.8238 20.0893 18.8159 20.0964 18.8086 20.1039C18.1048 20.5179 17.5181 21.1045 17.1039 21.8083C17.0965 21.8158 17.0895 21.8238 17.083 21.8321C17.0799 21.8399 17.0772 21.8478 17.075 21.8558C16.2322 23.3203 16.2322 25.1226 17.075 26.5871C17.0772 26.5951 17.0799 26.603 17.083 26.6107C17.0918 26.6246 17.102 26.6377 17.1132 26.6498C17.5268 27.3468 18.11 27.9279 18.8086 28.339C18.8159 28.3465 18.8238 28.3535 18.8322 28.36C18.8428 28.3652 18.8538 28.3697 18.8651 28.3735C20.325 29.2089 22.118 29.2089 23.5778 28.3735C23.5891 28.3697 23.6001 28.3652 23.6108 28.36C23.6191 28.3535 23.627 28.3465 23.6344 28.339C24.3329 27.9279 24.9161 27.3468 25.3297 26.6498C25.341 26.6377 25.3511 26.6246 25.36 26.6107C25.363 26.603 25.3657 26.5951 25.368 26.5871C26.2108 25.1226 26.2108 23.3203 25.368 21.8558C25.3657 21.8478 25.363 21.8399 25.36 21.8321ZM23.5699 27.7579L23.3097 27.3065C23.2626 27.2237 23.1748 27.1725 23.0795 27.1723C22.9842 27.1721 22.8962 27.2229 22.8487 27.3055C22.8013 27.3881 22.8017 27.4898 22.8499 27.572L23.1087 28.0201C22.6028 28.2726 22.0513 28.4207 21.4869 28.4555V27.9381C21.4869 27.7915 21.3681 27.6726 21.2215 27.6726C21.0749 27.6726 20.956 27.7915 20.956 27.9381V28.4555C20.3917 28.421 19.8402 28.2733 19.3342 28.0212L19.593 27.5731C19.6412 27.4909 19.6417 27.3892 19.5942 27.3066C19.5468 27.224 19.4587 27.1731 19.3634 27.1733C19.2682 27.1736 19.1803 27.2248 19.1332 27.3076L18.8731 27.7589C18.4026 27.4451 17.9989 27.0414 17.6851 26.5709L18.1364 26.3107C18.2192 26.2637 18.2704 26.1758 18.2706 26.0805C18.2708 25.9853 18.22 25.8972 18.1374 25.8498C18.0548 25.8023 17.9531 25.8028 17.8709 25.8509L17.4228 26.1098C17.1702 25.6035 17.0221 25.0516 16.9874 24.4869H17.5048C17.6514 24.4869 17.7703 24.3681 17.7703 24.2214C17.7703 24.0748 17.6514 23.956 17.5048 23.956H16.9874C17.0219 23.3917 17.1696 22.8402 17.4217 22.3342L17.8698 22.593C17.952 22.6412 18.0537 22.6416 18.1363 22.5942C18.2189 22.5467 18.2698 22.4587 18.2696 22.3634C18.2694 22.2681 18.2181 22.1803 18.1353 22.1332L17.684 21.873C17.9978 21.4026 18.4016 20.9988 18.872 20.685L19.1322 21.1363C19.1793 21.2192 19.2671 21.2704 19.3624 21.2706C19.4576 21.2708 19.5457 21.22 19.5932 21.1373C19.6406 21.0547 19.6402 20.953 19.592 20.8709L19.3331 20.4227C19.8394 20.1701 20.3913 20.0221 20.956 19.9874V20.5048C20.956 20.6514 21.0749 20.7702 21.2215 20.7702C21.3681 20.7702 21.4869 20.6514 21.4869 20.5048V19.9874C22.0512 20.0219 22.6028 20.1696 23.1087 20.4217L22.8499 20.8698C22.8017 20.952 22.8013 21.0537 22.8487 21.1363C22.8962 21.2189 22.9842 21.2697 23.0795 21.2695C23.1748 21.2693 23.2626 21.2181 23.3097 21.1353L23.5699 20.684C24.0403 20.9978 24.4441 21.4015 24.7579 21.872L24.3066 22.1321C24.2238 22.1792 24.1725 22.2671 24.1723 22.3623C24.1721 22.4576 24.223 22.5457 24.3056 22.5931C24.3882 22.6406 24.4899 22.6401 24.5721 22.5919L25.0202 22.3331C25.2728 22.8393 25.4209 23.3913 25.4556 23.956H24.9381C24.7915 23.956 24.6727 24.0748 24.6727 24.2214C24.6727 24.3681 24.7915 24.4869 24.9381 24.4869H25.4556C25.421 25.0512 25.2733 25.6027 25.0212 26.1087L24.5731 25.8499C24.4909 25.8017 24.3892 25.8012 24.3066 25.8487C24.224 25.8961 24.1732 25.9842 24.1734 26.0795C24.1736 26.1747 24.2248 26.2626 24.3076 26.3097L24.759 26.5698C24.4448 27.0404 24.0407 27.4442 23.5699 27.7579Z" fill="#00789E"/>
<path d="M22.5488 23.9561H21.4869V21.8322C21.4869 21.6856 21.368 21.5668 21.2214 21.5668C21.0748 21.5668 20.9559 21.6856 20.9559 21.8322V24.2215C20.9559 24.3682 21.0748 24.487 21.2214 24.487H22.5488C22.6954 24.487 22.8142 24.3682 22.8142 24.2215C22.8142 24.0749 22.6954 23.9561 22.5488 23.9561Z" fill="#00789E"/>
<path d="M18.2302 1.95537C18.2241 1.26347 17.3277 0.8002 15.3362 0.45124C13.6816 0.162447 11.4675 0 9.11508 0C6.7626 0 4.54851 0.162447 2.89396 0.45124C0.902483 0.8002 0.0120331 1.26347 0 1.94936C0 1.95538 0 1.95538 0 1.96139C0 2.00351 0.0060166 2.04563 0.0120331 2.08172L1.9975 22.1589C2.05766 22.8087 2.81575 23.2599 4.37403 23.5848C5.65556 23.8556 7.36426 24 9.19329 24C10.9742 24 12.6588 23.8375 13.9403 23.5427C15.4625 23.1938 16.2146 22.7124 16.2387 22.0626L17.2254 12.1233C17.2314 12.0932 17.2314 12.0632 17.2374 12.0331L18.2181 2.08774C18.2241 2.04562 18.2302 2.00351 18.2302 1.96139V1.95537ZM15.3362 22.0025C15.3362 22.0085 15.3362 22.0145 15.3362 22.0265C15.27 22.1348 14.8368 22.4537 13.5132 22.7245C12.3219 22.9711 10.7877 23.1095 9.19329 23.1095C7.52671 23.1095 5.95037 22.9832 4.75308 22.7485C3.39333 22.4838 2.96014 22.177 2.89396 22.0687L2.00351 13.0619C2.41264 13.2304 2.94811 13.3808 3.61595 13.5131C5.09602 13.8019 7.0514 13.9644 9.11508 13.9644C11.1788 13.9644 13.1341 13.8019 14.6142 13.5131C15.282 13.3808 15.8115 13.2304 16.2206 13.0619L15.3362 22.0025ZM14.1509 12.6829C12.7671 12.9295 10.9742 13.0619 9.11508 13.0619C7.25596 13.0619 5.46905 12.9295 4.07922 12.6829C2.68338 12.4362 2.10579 12.1474 1.93733 12.003C2.10579 11.8586 2.68338 11.5698 4.07922 11.3231C5.46303 11.0764 7.25596 10.9441 9.11508 10.9441C10.9742 10.9441 12.7611 11.0764 14.1509 11.3231C15.5468 11.5698 16.1183 11.8586 16.2928 12.003C16.1244 12.1474 15.5468 12.4362 14.1509 12.6829ZM16.4312 11.0343C15.998 10.8238 15.4024 10.6493 14.6142 10.4928C13.1341 10.2041 11.1788 10.0416 9.11508 10.0416C7.0514 10.0416 5.09602 10.2041 3.61595 10.4928C2.8338 10.6493 2.23214 10.8238 1.80497 11.0343L1.01078 2.98421C1.46804 3.17072 2.09376 3.32715 2.89998 3.47154C4.55453 3.76034 6.76862 3.92278 9.12109 3.92278C11.4736 3.92278 13.6877 3.76034 15.3422 3.47154C16.1484 3.33316 16.7681 3.17072 17.2314 2.98421L16.4312 11.0343ZM14.8428 2.64126C13.2785 2.88794 11.2449 3.0203 9.11508 3.0203C6.98522 3.0203 4.95162 2.88794 3.38732 2.64126C1.7448 2.38255 1.16119 2.09376 0.968665 1.96139C1.16119 1.82903 1.7448 1.54023 3.38732 1.28152C4.95162 1.03484 6.98522 0.902481 9.11508 0.902481C11.2449 0.902481 13.2785 1.03484 14.8428 1.28152C16.4853 1.54023 17.069 1.82903 17.2615 1.96139C17.069 2.09376 16.4914 2.38255 14.8428 2.64126Z" fill="#00789E"/>
<path d="M6.69674 21.1601L4.8978 20.7028L4.42249 18.4827C4.36834 18.236 4.12768 18.0796 3.88702 18.1338C3.64034 18.1879 3.48391 18.4286 3.53806 18.6692L4.07353 21.1601C4.10963 21.3285 4.23598 21.4609 4.40444 21.503L6.47413 22.0324C6.51624 22.0385 6.55234 22.0445 6.58844 22.0445C6.78699 22.0445 6.96748 21.9061 7.02163 21.7076C7.0818 21.4669 6.9374 21.2202 6.69674 21.1601Z" fill="#00789E"/>
</svg>
