<svg width="66" height="55" viewBox="0 0 66 55" fill="none" xmlns="http://www.w3.org/2000/svg">
<path d="M47.8625 54.9141H18.1375C8.12045 54.9141 0 46.7936 0 36.7766V6.9572C0 3.11476 3.11476 0 6.9572 0H59.0429C62.8852 0 66 3.11476 66 6.9572V36.7767C66 46.7936 57.8796 54.9141 47.8625 54.9141Z" fill="#0088BB"/>
<path d="M59.0388 0H55.055C58.8995 0 62.0162 3.11296 62.0162 6.95307V36.7871C62.0162 46.7984 53.891 54.9141 43.8681 54.9141H47.852C57.8749 54.9141 66 46.7984 66 36.7871V6.95307C66 3.11296 62.8833 0 59.0388 0Z" fill="#0088BB"/>
<path d="M3.98386 36.779V6.95504C3.98386 5.31161 5.3161 3.97949 6.9594 3.97949H59.0404C60.6838 3.97949 62.0159 5.31174 62.0159 6.95504V36.779C62.0159 44.5971 55.6781 50.9349 47.8601 50.9349H18.1398C10.3217 50.9349 3.98386 44.5971 3.98386 36.779Z" fill="#EFF6FF"/>
<path d="M59.0388 3.979H55.055C56.6993 3.979 58.0323 5.31048 58.0323 6.95287V36.7869C58.0323 44.6005 51.6909 50.9345 43.8683 50.9345H47.8521C55.6747 50.9345 62.0162 44.6005 62.0162 36.7869V6.95287C62.0162 5.31048 60.6832 3.979 59.0388 3.979Z" fill="#D9EEFF"/>
<path d="M43.8679 17.7629H22.132C21.5335 17.7629 21.0483 17.2777 21.0483 16.6792V12.4516C21.0483 9.9578 23.0699 7.93604 25.5639 7.93604H40.4362C42.93 7.93604 44.9518 9.95767 44.9518 12.4516V16.6792C44.9516 17.2777 44.4664 17.7629 43.8679 17.7629Z" fill="#F8F6F6"/>
<path d="M32.9999 42.3304C31.8998 42.3304 31.0079 41.4386 31.0079 40.3384V26.5276C31.0079 25.4275 31.8997 24.5356 32.9999 24.5356C34.1 24.5356 34.9919 25.4274 34.9919 26.5276V40.3385C34.9919 41.4386 34.1 42.3304 32.9999 42.3304Z" fill="#0088BB"/>
<path d="M32.5732 13.9975L28.9097 10.334C28.5321 9.95639 27.92 9.95639 27.5425 10.334C27.1649 10.7115 27.1649 11.3237 27.5425 11.7011L31.206 15.3647C31.3947 15.5534 31.6422 15.6479 31.8896 15.6479C32.137 15.6479 32.3845 15.5535 32.5732 15.3647C32.9509 14.9872 32.9509 14.375 32.5732 13.9975Z" fill="#3DCAFF"/>
<path d="M35.1248 17.7633H30.8753V15.9041C30.8753 14.7306 31.8266 13.7793 33.0001 13.7793C34.1735 13.7793 35.1248 14.7306 35.1248 15.9041V17.7633Z" fill="#0088BB"/>
<path d="M40.4361 6.96924H25.5637C22.5407 6.96924 20.0813 9.42864 20.0813 12.4516V16.6792C20.0813 17.8099 21.0012 18.7297 22.1318 18.7297H43.868C44.9986 18.7297 45.9184 17.8099 45.9184 16.6792V12.4516C45.9184 9.42864 43.4591 6.96924 40.4361 6.96924ZM43.9848 16.6794C43.9848 16.7438 43.9325 16.7963 43.868 16.7963H22.132C22.0675 16.7963 22.0151 16.7438 22.0151 16.6794V12.4517C22.0151 10.495 23.607 8.90296 25.5638 8.90296H40.4361C42.3929 8.90296 43.9848 10.495 43.9848 12.4517V16.6794Z" fill="#0088BB"/>
</svg>
