<svg width="30" height="29" viewBox="0 0 30 29" fill="none" xmlns="http://www.w3.org/2000/svg">
<rect y="10.252" width="18.8932" height="6.03176" rx="3.01588" transform="rotate(-32.8625 0 10.252)" fill="#95E5FF"/>
<rect width="18.8932" height="6.03176" rx="3.01588" transform="matrix(0.839975 0.542625 0.542625 -0.839975 10.8574 5.06665)" fill="#95E5FF"/>
<rect x="7.23828" y="8.44434" width="20.508" height="6.03176" rx="3.01588" transform="rotate(90 7.23828 8.44434)" fill="#95E5FF"/>
<path d="M16 26C16 27.6569 14.6569 29 13 29L4.30769 29C3.03319 29 2 27.9668 2 26.6923C2 24.6531 3.6531 23 5.69231 23L13 23C14.6569 23 16 24.3431 16 26Z" fill="#95E5FF"/>
<rect x="28.9521" y="8.44434" width="20.508" height="6.03176" rx="3.01588" transform="rotate(90 28.9521 8.44434)" fill="#95E5FF"/>
</svg>
