<svg height="512" viewBox="0 0 512 512" width="512" xmlns="http://www.w3.org/2000/svg"><path d="m162.667 32h154.666l18.667 18.667v26.666l-18.667 18.667h-154.666l-18.667-18.667v-26.666z" fill="#555"/><path d="m88 128h336a32 32 0 0 1 32 32v216a0 0 0 0 1 0 0h-400a0 0 0 0 1 0 0v-216a32 32 0 0 1 32-32z" fill="#3c3c3c"/><path d="m88 128h304a32 32 0 0 1 32 32v216a0 0 0 0 1 0 0h-368a0 0 0 0 1 0 0v-216a32 32 0 0 1 32-32z" fill="#555"/><path d="m88 376h336a32 32 0 0 1 32 32v16a0 0 0 0 1 0 0h-400a0 0 0 0 1 0 0v-16a32 32 0 0 1 32-32z" fill="#aac3d7" transform="matrix(-1 0 0 -1 512 800)"/><path d="m56 376h368a0 0 0 0 1 0 0v16a32 32 0 0 1 -32 32h-304a32 32 0 0 1 -32-32v-16a0 0 0 0 1 0 0z" fill="#d7e6f0"/><path d="m216 424h72v32h-72z" fill="#aac3d7"/><path d="m216 440h48v16h-48z" fill="#d7e6f0"/><path d="m184 456h128a16 16 0 0 1 16 16v8a0 0 0 0 1 0 0h-160a0 0 0 0 1 0 0v-8a16 16 0 0 1 16-16z" fill="#d7e6f0"/><path d="m296 456h16a16 16 0 0 1 16 16v8a0 0 0 0 1 0 0h-48a0 0 0 0 1 0 0v-8a16 16 0 0 1 16-16z" fill="#aac3d7"/><path d="m144 50.667h29.333a18.667 18.667 0 0 0 18.667-18.667h-29.333z" fill="#828787"/><path d="m144 77.333h29.333a18.667 18.667 0 0 1 18.667 18.667h-29.333z" fill="#3c3c3c"/><path d="m272 50.667h-21.333a18.667 18.667 0 0 1 -18.667-18.667h58.667z" fill="#828787"/><path d="m272 77.333h-21.333a18.667 18.667 0 0 0 -18.667 18.667h58.667z" fill="#3c3c3c"/><path d="m216 96h48a0 0 0 0 1 0 0v296a8 8 0 0 1 -8 8h-32a8 8 0 0 1 -8-8v-296a0 0 0 0 1 0 0z" fill="#784119"/><path d="m216 112h24a0 0 0 0 1 0 0v288a0 0 0 0 1 0 0h-16a8 8 0 0 1 -8-8v-280a0 0 0 0 1 0 0z" fill="#a55528"/><rect fill="#f06423" height="128" rx="32" width="440" x="16" y="208"/><rect fill="#faa51e" height="128" rx="32" width="408" x="16" y="208"/><path d="m176.667 256a22.025 22.025 0 0 0 -22-22h-16a6 6 0 0 0 -6 6v64a6 6 0 0 0 6 6h16a21.99 21.99 0 0 0 15.085-38 21.938 21.938 0 0 0 6.915-16zm-22 42h-10v-20h10a10 10 0 1 1 0 20zm0-32h-10v-20h10a10 10 0 1 1 0 20z" fill="#d7e6f0"/><path d="m210.667 234a22.025 22.025 0 0 0 -22 22v32a22 22 0 0 0 44 0v-32a22.025 22.025 0 0 0 -22-22zm10 54a10 10 0 0 1 -20 0v-32a10 10 0 0 1 20 0z" fill="#d7e6f0"/><path d="m266.667 234a22.025 22.025 0 0 0 -22 22v32a22 22 0 0 0 44 0v-32a22.025 22.025 0 0 0 -22-22zm10 54a10 10 0 0 1 -20 0v-32a10 10 0 1 1 20 0z" fill="#d7e6f0"/><path d="m344.667 256v-16a6 6 0 1 0 -12 0v16a10.011 10.011 0 0 1 -10 10h-10v-26a6 6 0 1 0 -12 0v64a6 6 0 0 0 12 0v-26h10a10.011 10.011 0 0 1 10 10v16a6 6 0 0 0 12 0v-16a21.938 21.938 0 0 0 -6.915-16 21.938 21.938 0 0 0 6.915-16z" fill="#d7e6f0"/><path d="m490.343 378.343-34.343-34.343 10.979-10.979c10.709-10.709 3.121-29.021-12.021-29.021h-83.67a27.314 27.314 0 0 0 -27.288 27.339v51.619a16.98 16.98 0 0 0 17.124 17.025v.009h32v-.009a16.5 16.5 0 0 0 5.807-1.052l19.412 19.412a19.315 19.315 0 0 0 13.657 5.657h32a19.315 19.315 0 0 0 13.657-5.657l12.686-12.686a19.314 19.314 0 0 0 0-27.314z" fill="#e13741"/><path d="m458.343 378.343-34.343-34.343 10.979-10.979c10.71-10.71 3.121-29.021-12.021-29.021h-51.67a27.251 27.251 0 0 0 -19.288 8 27.374 27.374 0 0 0 -8 19.339v51.619c0 15.146 18.311 22.731 29.021 12.021l10.979-10.979 34.343 34.343a19.315 19.315 0 0 0 13.657 5.657 19.315 19.315 0 0 0 13.657-5.657l12.686-12.687a19.312 19.312 0 0 0 5.657-13.656 19.315 19.315 0 0 0 -5.657-13.657z" fill="#f05555"/><g fill="#faa51e"><path d="m224 208a8 8 0 0 1 -8-8 8 8 0 0 0 -8-8h-32a8 8 0 0 0 -8 8 8 8 0 0 1 -8 8z"/><path d="m320 208a8 8 0 0 1 -8-8 8 8 0 0 0 -8-8h-32a8 8 0 0 0 -8 8 8 8 0 0 1 -8 8z"/><rect height="45.255" rx="8" transform="matrix(.707 -.707 .707 .707 20.589 289.706)" width="67.882" x="326.059" y="97.373"/><rect height="40" rx="8" width="40" x="64" y="32"/><rect height="40" rx="8" width="40" x="112" y="144"/></g><path d="m290.667 32h26.666l18.667 18.667v26.666l-18.667 18.667h-26.666l-18.667-18.667v-26.666z" fill="#3c3c3c"/></svg>