<svg id="Capa_1" enable-background="new 0 0 512 512" height="512" viewBox="0 0 512 512" width="512" xmlns="http://www.w3.org/2000/svg"><g><g><path d="m275.166 85.958h-253.29c-11.938 4.355-11.856 21.744-11.856 34.576v309.908c0 17.826 15.08 31.845 32.65 30.342l193.24-.107c.853 10.466 9.518 18.679 20.09 18.679s19.237-8.213 20.09-18.679z" fill="#d1aee4"/><path d="m65.571 55.275c-7.842.635-13.89 7.197-13.89 15.07v329.755c0 8.84 7.55 15.795 16.36 15.07l188.938-.798 3.363-359.096h-194.771z" fill="#fffbdf"/><path d="m484.492 223.491c24.314-45.214-14.244-64.149-14.244-64.149 2.692-36.935-26.969-47.229-26.969-47.229 0-68.069-60.819-49.271-60.819-49.271-17.363-35.524-60.132-27.668-60.132-27.668-2.53-2.53-11.232-2.53-11.232-2.53-29.887 0-54.116 25.386-54.116 56.701v106.48 90.824 111.286c0 31.315 8.707 72.547 54.116 72.547 32.075-1.749 42.459-25.352 47.571-34.278 72.34 25.515 71.947-48.685 71.947-48.685 73.042-12.628 40.62-83.025 40.62-83.025 57.999-26.578 13.258-81.003 13.258-81.003z" fill="#ff9eb1"/></g><g><circle cx="256.979" cy="239.793" r="10.059"/><path d="m512 260.194c0-14.468-5.401-27.691-14.278-37.786 4.695-7.777 7.221-16.719 7.221-25.946 0-17.638-9.135-33.683-23.807-42.745.071-1.094.118-2.19.118-3.287 0-19.045-10.569-36.038-27.009-44.565.068-1.103.11-2.209.11-3.318 0-29.604-24.089-53.688-53.698-53.688-4.514 0-8.933.567-13.226 1.658-10.079-16.42-27.928-26.615-47.714-26.615-4.741 0-9.424.616-13.948 1.784-4.495-2.463-10.387-3.06-14.997-3.06-19.085 0-36.227 8.772-47.931 22.63h-197.491c-.27 0-.54.011-.809.032-12.923 1.048-23.046 12.027-23.046 24.997v12.262h-13.44c-15.47 0-28.055 12.585-28.055 28.055v322.67c0 22.58 20.682 41.657 43.061 40.029l186.254-.001c5.15 9.782 15.322 16.074 26.686 16.074 11.24 0 21.307-6.16 26.508-15.76 8.526 4.401 18.119 6.888 28.264 6.888 23.313-.001 43.735-13.079 54.871-32.547 5.803 1.934 11.857 2.928 18.084 2.928 30.472 0 55.455-23.911 57.193-53.956 28.722-4.219 50.845-29.016 50.845-58.891 0-10.167-2.596-20.061-7.442-28.814 16.576-10.05 27.676-28.266 27.676-49.028zm-246.359 202.168c-1.361 4.171-5.235 6.974-9.641 6.974s-8.28-2.802-9.641-6.974c-.217-.666-.498-1.293-.833-1.878-1.211-4.171-5.055-7.223-9.616-7.223l-193.241.001c-11.031 0-22.63-7.565-22.63-19.99v-322.67c0-4.42 3.596-8.016 8.016-8.016h13.44v297.573c0 13.246 13.476 25.862 26.674 25.029l179.694.001c2.277 14.046 8.8 26.606 18.156 36.194-.141.317-.268.643-.378.979zm189.061-164.909c-5.533 0-10.02 4.486-10.02 10.02s4.486 10.02 10.02 10.02c3.63 0 7.177-.354 10.621-1.003 4.155 6.372 6.403 13.841 6.403 21.549 0 19.618-14.382 35.935-33.155 38.977-7.168-23.763-29.29-40.728-54.844-40.728-.368 0-.82.008-1.376.068-5.503.587-9.487 5.524-8.899 11.026.566 5.302 5.158 9.201 10.428 8.945 18.635.075 34.438 14.006 36.799 32.498.204 1.554.307 3.157.307 4.762 0 20.545-16.714 37.259-37.259 37.259-3.721 0-7.344-.545-10.832-1.604 1.093-4.861 1.69-9.918 1.69-15.121 0-5.533-4.486-10.02-10.02-10.02s-10.02 4.486-10.02 10.02c0 25.553-19.637 46.342-43.774 46.343-24.137 0-43.774-20.79-43.774-46.343v-128.985c0-5.533-4.486-10.02-10.02-10.02-5.533 0-10.02 4.486-10.02 10.02v120.015l-179.147-.001c-2.926 0-6.276-1.369-6.276-4.99v-329.875c0-2.507 1.88-4.644 4.331-4.99h185.319c-2.719 7.37-4.225 15.36-4.225 23.713v105.845c0 5.533 4.486 10.02 10.02 10.02 5.533 0 10.02-4.486 10.02-10.02v-105.845c0-20.274 12.366-37.537 29.518-43.81-1.424 3.723-.543 8.096 2.569 10.958 4.073 3.746 10.412 3.48 14.158-.594 6.791-7.385 16.44-11.62 26.474-11.62 14.809 0 27.935 8.882 33.44 22.622 1.701 4.251 2.563 8.753 2.563 13.38 0 13.478-7.429 25.724-19.388 31.956-4.907 2.558-6.812 8.609-4.254 13.517 1.787 3.428 5.278 5.39 8.894 5.39 1.56 0 3.143-.365 4.622-1.136 18.607-9.698 30.165-28.751 30.165-49.727 0-3.561-.332-7.077-.988-10.526 1.927-.339 3.891-.519 5.886-.519 18.56 0 33.659 15.095 33.659 33.649 0 2.5-.273 4.977-.816 7.386-2.34 10.488-9.653 19.294-19.563 23.555-5.083 2.185-7.432 8.078-5.247 13.162 1.631 3.794 5.326 6.065 9.209 6.065 1.32 0 2.662-.263 3.953-.818 11.924-5.127 21.487-14.391 27.069-25.814 7.596 5.569 12.293 14.501 12.293 24.348 0 2.262-.25 4.523-.743 6.717-1.051 4.669 1.489 9.579 5.897 11.434 11.259 4.727 18.535 15.671 18.535 27.881 0 4.649-1.066 9.179-3.072 13.277-8.081-4.363-17.32-6.844-27.13-6.844-5.533 0-10.02 4.486-10.02 10.02s4.486 10.02 10.02 10.02c20.545 0 37.259 16.715 37.259 37.26s-16.714 37.256-37.259 37.256z"/><path d="m316.651 173.127c1.646 1.022 3.473 1.509 5.277 1.509 3.35 0 6.624-1.679 8.522-4.734 2.92-4.701 1.476-10.879-3.225-13.798-12.105-7.518-15.837-23.48-8.319-35.585 2.92-4.701 1.476-10.878-3.226-13.797-4.7-2.919-10.879-1.477-13.797 3.226-13.348 21.489-6.723 49.832 14.768 63.179z"/><path d="m334.241 330.744c-8.515 5.788-20.149 3.568-25.937-4.945-3.111-4.577-9.341-5.765-13.919-2.653-4.576 3.111-5.764 9.342-2.653 13.919 7.48 11.005 19.671 16.935 32.07 16.935 7.49 0 15.057-2.165 21.704-6.685 4.576-3.111 5.764-9.342 2.653-13.919-3.11-4.578-9.343-5.765-13.918-2.652z"/><path d="m313.488 274.02c6.571 12.231 23.488 1.38 17.654-9.483-4.872-9.069-1.457-20.411 7.612-25.283 4.875-2.618 6.704-8.694 4.085-13.568-2.617-4.873-8.691-6.704-13.569-4.085-18.802 10.1-25.883 33.614-15.782 52.419z"/><path d="m418.76 277.584c-4.772-1.449-8.694-4.669-11.044-9.068-2.35-4.398-2.846-9.449-1.398-14.22 1.608-5.296-1.382-10.891-6.676-12.498-5.293-1.606-10.891 1.381-12.498 6.676-3.004 9.894-1.975 20.365 2.897 29.485 4.873 9.119 13.005 15.796 22.899 18.799 12.031 3.655 18.405-15.356 5.82-19.174z"/><path d="m402.827 208.472c4.296 0 8.271-2.787 9.583-7.112 1.608-5.296-1.382-10.891-6.676-12.498-9.851-2.991-15.433-13.438-12.443-23.289 1.608-5.295-1.382-10.891-6.676-12.498-5.293-1.605-10.891 1.381-12.498 6.676-6.201 20.425 5.372 42.085 25.796 48.285.97.295 1.949.436 2.914.436z"/><path d="m212.177 123.336h-115.176c-5.533 0-10.02 4.486-10.02 10.02 0 5.533 4.486 10.02 10.02 10.02h115.176c5.533 0 10.02-4.486 10.02-10.02s-4.487-10.02-10.02-10.02z"/><path d="m212.177 169.187h-115.176c-5.533 0-10.02 4.486-10.02 10.02 0 5.533 4.486 10.02 10.02 10.02h115.176c5.533 0 10.02-4.486 10.02-10.02s-4.487-10.02-10.02-10.02z"/><path d="m212.177 215.038h-115.176c-5.533 0-10.02 4.486-10.02 10.02 0 5.533 4.486 10.02 10.02 10.02h115.176c5.533 0 10.02-4.486 10.02-10.02s-4.487-10.02-10.02-10.02z"/><path d="m212.177 260.889h-115.176c-5.533 0-10.02 4.486-10.02 10.02s4.486 10.02 10.02 10.02h115.176c5.533 0 10.02-4.486 10.02-10.02s-4.487-10.02-10.02-10.02z"/><path d="m212.177 306.741h-115.176c-5.533 0-10.02 4.486-10.02 10.02s4.486 10.02 10.02 10.02h115.176c5.533 0 10.02-4.486 10.02-10.02s-4.487-10.02-10.02-10.02z"/></g></g></svg>