<svg id="Capa_1" enable-background="new 0 0 489.997 489.997" height="512" viewBox="0 0 489.997 489.997" width="512" xmlns="http://www.w3.org/2000/svg"><g><path d="m449 40.864h-267.822c-4.694 0-8.5-3.806-8.5-8.5s3.806-8.5 8.5-8.5h267.822c4.694 0 8.5 3.806 8.5 8.5s-3.806 8.5-8.5 8.5z" fill="#526071"/><path d="m-13.005 185.655h389.736v26.95h-389.736z" fill="#f5dc60" transform="matrix(0 1 -1 0 380.993 17.267)"/><path d="m335.442 91.231h-121.18c-28.277 0-51.2 22.923-51.2 51.2v155.005.005c0 61.74 50.05 111.79 111.79 111.79s111.79-50.05 111.79-111.79v-155.01c-.001-28.277-22.924-51.2-51.2-51.2zm-121.181 45h121.181c3.419 0 6.2 2.781 6.2 6.2v65.359c-18.635-13.906-41.751-22.139-66.79-22.139-25.04 0-48.155 8.233-66.79 22.139v-65.359c-.001-3.419 2.781-6.2 6.199-6.2z" fill="#526071"/><path d="m294.85 407.441c-6.49 1.18-13.17 1.79-20 1.79-61.74 0-111.79-50.05-111.79-111.79s50.05-111.79 111.79-111.79c6.83 0 13.51.61 20 1.79-52.2 9.42-91.79 55.09-91.79 110s39.59 100.58 91.79 110z" fill="#3e4a56"/><path d="m252.977 185.655h389.736v26.95h-389.736z" fill="#f5dc60" transform="matrix(0 1 -1 0 646.975 -248.715)"/><path d="m148.483 188.765c-82.01 0-148.483 66.483-148.483 148.483 0 82.01 66.473 148.483 148.483 148.483 82 0 148.483-66.473 148.483-148.483 0-82-66.483-148.483-148.483-148.483zm0 174.489c-14.366 0-26.007-11.64-26.007-26.007 0-14.356 11.64-26.007 26.007-26.007 14.356 0 26.007 11.651 26.007 26.007 0 14.367-11.651 26.007-26.007 26.007z" fill="#de5866"/><path d="m148.483 449.459c-61.873 0-112.211-50.338-112.211-112.211s50.338-112.211 112.211-112.211 112.211 50.338 112.211 112.211-50.338 112.211-112.211 112.211zm0-209.422c-53.603 0-97.211 43.609-97.211 97.211s43.608 97.211 97.211 97.211 97.211-43.609 97.211-97.211-43.608-97.211-97.211-97.211z" fill="#c6475c"/><path d="m427.805 361.351c-26.639 0-49.356 16.754-58.216 40.296-11.387-6.704-27.915-10.925-46.317-10.925s-34.931 4.221-46.317 10.925c-8.859-23.542-31.577-40.296-58.216-40.296-34.347 0-62.192 27.844-62.192 62.192s27.844 62.192 62.192 62.192c26.639 0 49.357-16.754 58.216-40.296 11.387 6.704 27.915 10.925 46.317 10.925s34.931-4.221 46.317-10.925c8.859 23.542 31.577 40.296 58.216 40.296 34.348 0 62.192-27.844 62.192-62.192s-27.844-62.192-62.192-62.192z" fill="#7da2dc"/><path d="m396.709 423.543c0-28.979 19.82-53.328 46.644-60.232-4.969-1.279-10.179-1.96-15.548-1.96-34.348 0-62.192 27.844-62.192 62.192s27.844 62.192 62.192 62.192c5.369 0 10.579-.68 15.548-1.96-26.824-6.904-46.644-31.253-46.644-60.232z" fill="#6d94c5"/><path d="m187.642 423.543c0-28.979 19.82-53.328 46.644-60.232-4.969-1.279-10.179-1.96-15.548-1.96-34.347 0-62.192 27.844-62.192 62.192s27.844 62.192 62.192 62.192c5.369 0 10.579-.68 15.548-1.96-26.824-6.904-46.644-31.253-46.644-60.232z" fill="#6d94c5"/><path d="m148.479 370.759c-18.476 0-33.507-15.031-33.507-33.507s15.031-33.507 33.507-33.507c18.477 0 33.508 15.031 33.508 33.507s-15.031 33.507-33.508 33.507zm0-52.015c-10.205 0-18.507 8.302-18.507 18.507s8.302 18.507 18.507 18.507 18.508-8.302 18.508-18.507-8.303-18.507-18.508-18.507z" fill="#c6475c"/></g></svg>