<svg height="512" viewBox="0 0 512 512" width="512" xmlns="http://www.w3.org/2000/svg"><g id="FLAT"><path d="m405.455 199.747-56.535 25.637a79.952 79.952 0 0 0 -46.893 75.288l1.921 62.048 57.043-30.11a79.95 79.95 0 0 0 42.6-68.389z" fill="#029532"/><path d="m405 215.62-30.25 48.55 28.96-4.01-.12 4.06a79.521 79.521 0 0 1 -1.31 12.29l-38.54 5.34-45.75 73.46-14.04 7.41-.45-14.42 25.51-40.95-16.25-49.21a79.676 79.676 0 0 1 11.71-15.54l15.55 47.07 52.31-83.97 13.13-5.95z" fill="#027e2a"/><path d="m488 303.7-61.96-3.821a79.951 79.951 0 0 0 -76.689 44.564l-27.358 55.724 64.5.107a79.953 79.953 0 0 0 69.662-40.48z" fill="#02a437"/><path d="m480.17 317.5-49.47 28.75 27.46 10.01-2 3.53a79.64 79.64 0 0 1 -6.92 10.25l-36.55-13.33-74.82 43.48-15.88-.03 6.35-12.94 41.73-24.25 8.69-51.09a79.943 79.943 0 0 1 17.62-8.23l-8.3 48.86 85.52-49.7 14.4.89z" fill="#027e2a"/><ellipse cx="100" cy="363.294" fill="#b9b9b9" rx="76" ry="44.706"/><path d="m176 363.29c0 24.69-34.03 44.71-76 44.71-37.27 0-68.28-15.79-74.75-36.61 12.89 13.89 37.95 23.31 66.75 23.31 41.97 0 76-20.01 76-44.7a27.141 27.141 0 0 0 -1.25-8.11c5.89 6.35 9.25 13.64 9.25 21.4z" fill="#9e9e9e"/><ellipse cx="92" cy="279.588" fill="#b9b9b9" rx="52" ry="39"/><path d="m144 279.59c0 21.54-23.28 39-52 39-20.36 0-37.98-8.77-46.51-21.55 9.42 7.13 22.48 11.54 36.92 11.54 28.72 0 52-17.46 52-39a31.174 31.174 0 0 0 -5.5-17.46c9.33 7.05 15.09 16.75 15.09 27.47z" fill="#9e9e9e"/><ellipse cx="92" cy="211.222" fill="#b9b9b9" rx="36" ry="29" transform="matrix(.986 -.166 .166 .986 -33.828 18.23)"/><ellipse cx="92" cy="211.222" fill="#b9b9b9" rx="36" ry="29" transform="matrix(.986 -.166 .166 .986 -33.828 18.23)"/><path d="m96.82 239.82c-18.6 3.13-35.8-5.81-39.79-20.22 7.51 7.83 20.21 11.87 33.63 9.6 19.6-3.3 33.34-18.79 30.68-34.58a24.042 24.042 0 0 0 -.54-2.41 24.58 24.58 0 0 1 6.7 13.03c2.66 15.79-11.07 31.27-30.68 34.58z" fill="#9e9e9e"/><path d="m304 400h-144l9.816-88.343a62.566 62.566 0 0 1 62.184-55.657 62.566 62.566 0 0 1 62.184 55.657z" fill="#fbb540"/><path d="m264 368h-64l5.612-56.119a26.52 26.52 0 0 1 26.388-23.881 26.52 26.52 0 0 1 26.388 23.881z" fill="#d18d28"/><path d="m160 200h144a0 0 0 0 1 0 0 64 64 0 0 1 -64 64h-16a64 64 0 0 1 -64-64 0 0 0 0 1 0 0z" fill="#fbb540"/><path d="m355.1 341.751a24.005 24.005 0 0 0 -22.824-16.584 24 24 0 0 0 -45.653 0 24 24 0 0 0 -14.107 43.418 24 24 0 0 0 36.933 26.833 24 24 0 0 0 36.934-26.833 24.008 24.008 0 0 0 8.717-26.834z" fill="#e2e2e2"/><circle cx="309.444" cy="356.584" fill="#faa6b2" r="16"/><g fill="#f7ba61"><path d="m229 168a8 8 0 0 1 -8-8 41.383 41.383 0 0 1 3.6-17.7 25.8 25.8 0 0 0 2.4-11.638 8 8 0 0 1 16 0 41.381 41.381 0 0 1 -3.6 17.695 25.8 25.8 0 0 0 -2.4 11.643 8 8 0 0 1 -8 8z"/><path d="m229.065 112a8 8 0 0 1 -7.98-7.546c-.056-.995-.085-2.045-.085-3.123a41.381 41.381 0 0 1 3.6-17.7 25.782 25.782 0 0 0 2.4-11.631 8 8 0 0 1 16 0 41.381 41.381 0 0 1 -3.6 17.7 25.782 25.782 0 0 0 -2.4 11.636c0 .776.02 1.522.06 2.215a8 8 0 0 1 -7.534 8.441c-.154.008-.308.008-.461.008z"/><path d="m189 168a8 8 0 0 1 -8-8 41.388 41.388 0 0 1 3.6-17.7c.171-.417.341-.834.509-1.258a8 8 0 1 1 14.87 5.91c-.189.473-.379.94-.57 1.406a25.781 25.781 0 0 0 -2.409 11.642 8 8 0 0 1 -8 8z"/><path d="m193.507 128a8 8 0 0 1 -7.618-5.564c-.364-1.139-.816-2.243-1.294-3.411a41.4 41.4 0 0 1 -3.595-17.7 41.381 41.381 0 0 1 3.6-17.7 25.782 25.782 0 0 0 2.4-11.625 8 8 0 0 1 16 0 41.381 41.381 0 0 1 -3.6 17.7 25.782 25.782 0 0 0 -2.4 11.636 25.8 25.8 0 0 0 2.4 11.638c.548 1.338 1.168 2.855 1.724 4.593a8 8 0 0 1 -7.617 10.433z"/><path d="m269 168a8 8 0 0 1 -8-8 41.383 41.383 0 0 1 3.6-17.7 25.8 25.8 0 0 0 2.4-11.638 25.786 25.786 0 0 0 -2.4-11.64c-.547-1.336-1.166-2.851-1.722-4.587a8 8 0 1 1 15.238-4.878c.365 1.137.815 2.24 1.293 3.407a41.39 41.39 0 0 1 3.6 17.7 41.381 41.381 0 0 1 -3.6 17.695 25.8 25.8 0 0 0 -2.409 11.641 8 8 0 0 1 -8 8z"/><path d="m272 94.667a8 8 0 0 1 -7.4-11.031 25.785 25.785 0 0 0 2.4-11.636 8 8 0 0 1 16 0 41.381 41.381 0 0 1 -3.6 17.7 8 8 0 0 1 -7.4 4.967z"/></g><path d="m24 400h464a0 0 0 0 1 0 0v2a46 46 0 0 1 -46 46h-372a46 46 0 0 1 -46-46v-2a0 0 0 0 1 0 0z" fill="#683b0d"/><path d="m216 248h32v16h-32z" fill="#fbb540"/></g></svg>