<?xml version="1.0" encoding="iso-8859-1"?>
<!-- Generator: Adobe Illustrator 19.0.0, SVG Export Plug-In . SVG Version: 6.00 Build 0)  -->
<svg version="1.1" id="Capa_1" xmlns="http://www.w3.org/2000/svg" xmlns:xlink="http://www.w3.org/1999/xlink" x="0px" y="0px"
	 viewBox="0 0 512 512" style="enable-background:new 0 0 512 512;" xml:space="preserve">
<circle style="fill:#42DB8F;" cx="256" cy="256" r="256"/>
<path style="fill:#0ACB72;" d="M123.249,322.722l184.12,184.12c98.12-19.987,175.829-96.099,198.146-193.352L316.812,124.787
	L123.249,322.722z"/>
<circle style="fill:#FFDE1F;" cx="218.69" cy="222.44" r="138.44"/>
<path style="fill:#F9C41E;" d="M218.686,83.999c-0.205,0-0.409,0.007-0.614,0.008v276.861c0.205,0.001,0.409,0.008,0.614,0.008
	c76.458,0,138.438-61.981,138.438-138.438S295.143,83.999,218.686,83.999z"/>
<circle style="fill:#FA8B00;" cx="218.69" cy="222.44" r="107.09"/>
<path style="fill:#F47C00;" d="M218.686,115.344c-0.205,0-0.409,0.006-0.614,0.008v214.171c0.205,0.001,0.409,0.008,0.614,0.008
	c59.146,0,107.094-47.947,107.094-107.093C325.78,163.291,277.832,115.344,218.686,115.344z"/>
<path style="fill:#FFFFFF;" d="M274.979,255.688c0-23.608-18.106-43.256-41.793-47.052V168.05h32.115v-29h-32.115v-14.262h-29
	v14.394c-26.007,1.73-46.615,22.408-46.615,47.595v2.459c0,25.187,20.608,45.865,46.615,47.595v37.584h-32.115v29h32.115v14.262h29
	v-14.936C256.872,298.944,274.979,279.296,274.979,255.688z M186.571,189.235v-2.459c0-9.259,7.634-16.95,17.615-18.444v39.348
	C194.205,206.186,186.571,198.495,186.571,189.235z M233.186,272.886V238.49c7.516,2.874,12.793,9.499,12.793,17.198
	C245.979,263.387,240.702,270.013,233.186,272.886z"/>
<path style="fill:#E6E6E6;" d="M233.186,208.636V168.05h32.115v-29h-32.115v-14.262h-15.114v192.89h15.114v-14.936
	c23.687-3.796,41.793-23.444,41.793-47.053S256.872,212.432,233.186,208.636z M233.186,272.886V238.49
	c7.516,2.874,12.793,9.499,12.793,17.198C245.979,263.387,240.702,270.013,233.186,272.886z"/>
<polygon style="fill:#37474F;" points="417.664,306.415 263.686,246.314 323.785,400.291 343.833,357.223 406.749,420.139 
	437.511,389.378 374.596,326.462 "/>
<polygon style="fill:#263238;" points="437.511,389.378 374.595,326.462 417.664,306.415 263.686,246.314 422.278,404.611 "/>
<g>
</g>
<g>
</g>
<g>
</g>
<g>
</g>
<g>
</g>
<g>
</g>
<g>
</g>
<g>
</g>
<g>
</g>
<g>
</g>
<g>
</g>
<g>
</g>
<g>
</g>
<g>
</g>
<g>
</g>
</svg>
