<?xml version="1.0" encoding="iso-8859-1"?>
<!-- Generator: Adobe Illustrator 19.0.0, SVG Export Plug-In . SVG Version: 6.00 Build 0)  -->
<svg version="1.1" id="Capa_1" xmlns="http://www.w3.org/2000/svg" xmlns:xlink="http://www.w3.org/1999/xlink" x="0px" y="0px"
	 viewBox="0 0 512 512" style="enable-background:new 0 0 512 512;" xml:space="preserve">
<circle style="fill:#1E499E;" cx="256" cy="256" r="256"/>
<path style="fill:#0E387C;" d="M274.196,511.349C407.087,502.014,512,391.266,512,256c0-3.647-0.095-7.271-0.246-10.881
	l-75.369-75.369l-32.683,78.5L277.088,121.637L91.911,329.064L274.196,511.349z"/>
<polygon style="fill:#DC2C00;" points="277.088,282.346 151.087,282.346 91.911,329.064 91.911,121.637 277.088,121.637 "/>
<rect x="187.5" y="121.64" style="fill:#B21F02;" width="89.59" height="160.71"/>
<path style="fill:#FFCABC;" d="M210.733,238.005c-3.16,2.079-6.588,3.7-10.286,4.863c-3.699,1.163-7.667,1.746-11.907,1.746
	c-6.234,0-11.928-1.288-17.081-3.865c-5.155-2.575-9.581-5.942-13.278-10.099c-3.699-4.155-6.545-8.934-8.541-14.338
	c-1.995-5.402-2.992-10.929-2.992-16.583c0-5.901,1.06-11.552,3.179-16.957c2.12-5.402,5.069-10.181,8.853-14.338
	c3.781-4.156,8.248-7.459,13.403-9.912c5.153-2.451,10.763-3.678,16.832-3.678c6.234,0,11.926,1.309,17.081,3.927
	c5.153,2.619,9.557,6.047,13.216,10.286c3.657,4.239,6.483,9.061,8.478,14.463c1.995,5.404,2.993,10.89,2.993,16.458
	c0,5.653-0.936,11.034-2.806,16.146s-4.551,9.706-8.042,13.777l12.592,14.089h-16.333L210.733,238.005z M188.79,229.403
	c4.239,0,8.061-1.039,11.47-3.117L186.92,211.2h16.333l5.486,6.234c3.074-5.402,4.613-11.303,4.613-17.705
	c0-3.822-0.583-7.522-1.746-11.097c-1.165-3.573-2.805-6.732-4.925-9.476c-2.12-2.743-4.697-4.944-7.73-6.608
	c-3.035-1.662-6.464-2.494-10.286-2.494c-3.99,0-7.502,0.854-10.535,2.556c-3.035,1.705-5.61,3.97-7.73,6.795
	c-2.12,2.827-3.721,6.006-4.8,9.538c-1.081,3.534-1.621,7.128-1.621,10.785c0,3.824,0.561,7.523,1.683,11.096
	c1.122,3.575,2.743,6.733,4.862,9.476c2.12,2.743,4.716,4.946,7.792,6.608C181.391,228.573,184.882,229.403,188.79,229.403z"/>
<path style="fill:#FFA899;" d="M219.835,229.901c3.491-4.071,6.171-8.665,8.042-13.777s2.806-10.493,2.806-16.146
	c0-5.568-0.998-11.054-2.993-16.458c-1.995-5.402-4.821-10.224-8.478-14.463c-3.659-4.239-8.063-7.667-13.216-10.286
	c-5.155-2.618-10.847-3.927-17.081-3.927c-0.476,0-0.944,0.021-1.415,0.036v15.207c0.385-0.017,0.771-0.032,1.165-0.032
	c3.822,0,7.251,0.832,10.286,2.494c3.033,1.664,5.61,3.865,7.73,6.608s3.76,5.903,4.925,9.476c1.163,3.575,1.746,7.274,1.746,11.097
	c0,6.401-1.539,12.302-4.613,17.705l-5.486-6.234H187.5v0.656l12.76,14.43c-3.409,2.079-7.231,3.117-11.47,3.117
	c-0.436,0-0.865-0.014-1.29-0.035v15.218c0.347,0.008,0.69,0.027,1.041,0.027c4.239,0,8.208-0.583,11.907-1.746
	c3.698-1.163,7.126-2.784,10.286-4.863l5.361,5.985h16.333L219.835,229.901z"/>
<polygon style="fill:#FFCABC;" points="187.5,211.855 187.5,211.2 186.92,211.2 "/>
<polygon style="fill:#44C4FC;" points="251.208,330.46 377.209,330.46 436.385,377.177 436.385,169.75 251.208,169.75 "/>
<polygon style="fill:#29ACE5;" points="343.982,169.75 343.982,330.459 377.209,330.459 436.385,377.178 436.385,169.75 "/>
<path style="fill:#1F66CC;" d="M302.079,292.104l34.91-88.522h13.964l34.785,88.522h-18.202l-8.104-22.068h-31.045l-8.104,22.068
	H302.079z M343.972,222.158l-12.718,35.783h25.061L343.972,222.158z"/>
<polygon style="fill:#154797;" points="343.972,222.158 356.314,257.941 343.999,257.941 343.999,270.035 359.432,270.035 
	367.536,292.104 385.738,292.104 350.953,203.581 343.972,203.581 "/>
<g>
</g>
<g>
</g>
<g>
</g>
<g>
</g>
<g>
</g>
<g>
</g>
<g>
</g>
<g>
</g>
<g>
</g>
<g>
</g>
<g>
</g>
<g>
</g>
<g>
</g>
<g>
</g>
<g>
</g>
</svg>
